<?xml version="1.0" encoding="UTF-8" standalone="no"?>
<!-- Created with Inkscape (http://www.inkscape.org/) -->

<svg
   xmlns:dc="http://purl.org/dc/elements/1.1/"
   xmlns:cc="http://creativecommons.org/ns#"
   xmlns:rdf="http://www.w3.org/1999/02/22-rdf-syntax-ns#"
   xmlns:svg="http://www.w3.org/2000/svg"
   xmlns="http://www.w3.org/2000/svg"
   xmlns:sodipodi="http://sodipodi.sourceforge.net/DTD/sodipodi-0.dtd"
   xmlns:inkscape="http://www.inkscape.org/namespaces/inkscape"
   width="210mm"
   height="297mm"
   viewBox="0 0 210 297"
   version="1.1"
   id="svg8"
   inkscape:version="0.92.4 (5da689c313, 2019-01-14)"
   sodipodi:docname="fiveStars.svg">
  <defs
     id="defs2" />
  <sodipodi:namedview
     id="base"
     pagecolor="#ffffff"
     bordercolor="#666666"
     borderopacity="1.0"
     inkscape:pageopacity="0.0"
     inkscape:pageshadow="2"
     inkscape:zoom="1.5282291"
     inkscape:cx="217.74619"
     inkscape:cy="868.33265"
     inkscape:document-units="mm"
     inkscape:current-layer="layer1"
     showgrid="false"
     inkscape:window-width="1904"
     inkscape:window-height="1039"
     inkscape:window-x="8"
     inkscape:window-y="33"
     inkscape:window-maximized="0" />
  <metadata
     id="metadata5">
    <rdf:RDF>
      <cc:Work
         rdf:about="">
        <dc:format>image/svg+xml</dc:format>
        <dc:type
           rdf:resource="http://purl.org/dc/dcmitype/StillImage" />
        <dc:title></dc:title>
      </cc:Work>
    </rdf:RDF>
  </metadata>
  <g
     inkscape:label="Layer 1"
     inkscape:groupmode="layer"
     id="layer1">
    <path
       style="opacity:0.95999995;fill:#f46000;fill-opacity:1;stroke:#343a40;stroke-width:1.99899995;stroke-miterlimit:4;stroke-dasharray:none;stroke-dashoffset:0;stroke-opacity:0;paint-order:stroke fill markers"
       d="m 18.538154,35.205565 7.55374,-4.39971 7.55531,4.39812 -1.8494,-8.54294 6.51831,-5.82698 -8.69905,-0.8809 -3.52517,-7.998164 -3.52519,7.998174 -8.697453,0.88247 6.518313,5.8238 z"
       id="path823-3"
       inkscape:connector-curvature="0" />
    <path
       style="opacity:0.95999995;fill:#f46000;fill-opacity:1;stroke:#343a40;stroke-width:1.99899995;stroke-miterlimit:4;stroke-dasharray:none;stroke-dashoffset:0;stroke-opacity:0;paint-order:stroke fill markers"
       d="m 46.898083,35.205565 7.55374,-4.39971 7.55531,4.39812 -1.8494,-8.54294 6.51831,-5.82698 -8.69905,-0.8809 -3.52517,-7.998165 -3.52519,7.998175 -8.697453,0.88247 6.518313,5.8238 z"
       id="path823-3-5"
       inkscape:connector-curvature="0" />
    <path
       style="opacity:0.95999995;fill:#f46000;fill-opacity:1;stroke:#343a40;stroke-width:1.99899995;stroke-miterlimit:4;stroke-dasharray:none;stroke-dashoffset:0;stroke-opacity:0;paint-order:stroke fill markers"
       d="m 75.258012,35.205565 7.553745,-4.39971 7.55531,4.39812 -1.8494,-8.54294 6.518308,-5.82698 -8.699048,-0.8809 -3.52517,-7.998165 -3.52519,7.998175 -8.697458,0.88247 6.518318,5.8238 z"
       id="path823-3-5-8"
       inkscape:connector-curvature="0" />
    <path
       style="opacity:0.95999995;fill:#f46000;fill-opacity:1;stroke:#343a40;stroke-width:1.99899995;stroke-miterlimit:4;stroke-dasharray:none;stroke-dashoffset:0;stroke-opacity:0;paint-order:stroke fill markers"
       d="m 103.61794,35.205565 7.55375,-4.39971 7.55531,4.39812 -1.8494,-8.54294 6.51831,-5.82698 -8.69905,-0.8809 -3.52517,-7.998166 -3.52519,7.998176 -8.697459,0.88247 6.518319,5.8238 z"
       id="path823-3-5-8-7"
       inkscape:connector-curvature="0" />
    <path
       style="opacity:0.95999995;fill:#f46000;fill-opacity:1;stroke:#343a40;stroke-width:1.99899995;stroke-miterlimit:4;stroke-dasharray:none;stroke-dashoffset:0;stroke-opacity:0;paint-order:stroke fill markers"
       d="m 131.97786,35.205575 7.55376,-4.39971 7.55531,4.39812 -1.8494,-8.54294 6.5183,-5.82698 -8.69904,-0.8809 -3.52517,-7.998176 -3.52519,7.998186 -8.69747,0.88247 6.51832,5.8238 z"
       id="path823-3-5-8-7-4"
       inkscape:connector-curvature="0" />
  </g>
</svg>
